<?xml version="1.0" encoding="UTF-8" standalone="no"?>
<!DOCTYPE svg PUBLIC "-//W3C//DTD SVG 1.1//EN"
 "http://www.w3.org/Graphics/SVG/1.1/DTD/svg11.dtd">
<!-- Generated by graphviz version 12.2.1 (20241206.2353)
 -->
<!-- Title: shape tree Pages: 1 -->
<svg width="222pt" height="471pt"
 viewBox="0.00 0.00 221.58 471.00" xmlns="http://www.w3.org/2000/svg" xmlns:xlink="http://www.w3.org/1999/xlink">
<g id="graph0" class="graph" transform="scale(1 1) rotate(0) translate(4 467)">
<title>shape tree</title>
<polygon fill="white" stroke="none" points="-4,4 -4,-467 217.58,-467 217.58,4 -4,4"/>
<!-- node_538 -->
<g id="node1" class="node">
<title>node_538</title>
<ellipse fill="none" stroke="green" cx="164.79" cy="-179.5" rx="48.79" ry="18"/>
<text text-anchor="middle" x="164.79" y="-174.45" font-family="Times,serif" font-size="14.00">538 IVAR</text>
</g>
<!-- node_4 -->
<g id="node2" class="node">
<title>node_4</title>
<ellipse fill="none" stroke="black" cx="106.79" cy="-91" rx="61.59" ry="18"/>
<text text-anchor="middle" x="106.79" y="-85.95" font-family="Times,serif" font-size="14.00">4 T_OBJECT</text>
</g>
<!-- node_538&#45;&#45;node_4 -->
<g id="edge1" class="edge">
<title>node_538&#45;&#45;node_4</title>
<path fill="none" stroke="black" d="M153.61,-161.82C143.4,-146.6 128.39,-124.22 118.14,-108.92"/>
<text text-anchor="middle" x="160.86" y="-130.2" font-family="Times,serif" font-size="14.00">@extra</text>
</g>
<!-- node_4294967295 -->
<g id="node9" class="node">
<title>node_4294967295</title>
<ellipse fill="none" stroke="black" cx="106.79" cy="-18" rx="53.91" ry="18"/>
<text text-anchor="middle" x="106.79" y="-12.95" font-family="Times,serif" font-size="14.00">Root Shape</text>
</g>
<!-- node_4&#45;&#45;node_4294967295 -->
<g id="edge8" class="edge">
<title>node_4&#45;&#45;node_4294967295</title>
<path fill="none" stroke="black" d="M106.79,-72.81C106.79,-61.65 106.79,-47.16 106.79,-36.03"/>
</g>
<!-- node_539 -->
<g id="node3" class="node">
<title>node_539</title>
<ellipse fill="none" stroke="green" cx="164.79" cy="-268" rx="48.79" ry="18"/>
<text text-anchor="middle" x="164.79" y="-262.95" font-family="Times,serif" font-size="14.00">539 IVAR</text>
</g>
<!-- node_539&#45;&#45;node_538 -->
<g id="edge2" class="edge">
<title>node_539&#45;&#45;node_538</title>
<path fill="none" stroke="black" d="M164.79,-249.91C164.79,-234.84 164.79,-212.99 164.79,-197.85"/>
<text text-anchor="middle" x="174.17" y="-218.7" font-family="Times,serif" font-size="14.00">@a</text>
</g>
<!-- node_540 -->
<g id="node4" class="node">
<title>node_540</title>
<ellipse fill="none" stroke="green" cx="164.79" cy="-356.5" rx="48.79" ry="18"/>
<text text-anchor="middle" x="164.79" y="-351.45" font-family="Times,serif" font-size="14.00">540 IVAR</text>
</g>
<!-- node_540&#45;&#45;node_539 -->
<g id="edge3" class="edge">
<title>node_540&#45;&#45;node_539</title>
<path fill="none" stroke="black" d="M164.79,-338.41C164.79,-323.34 164.79,-301.49 164.79,-286.35"/>
<text text-anchor="middle" x="174.54" y="-307.2" font-family="Times,serif" font-size="14.00">@b</text>
</g>
<!-- node_541 -->
<g id="node5" class="node">
<title>node_541</title>
<ellipse fill="none" stroke="green" cx="164.79" cy="-445" rx="48.79" ry="18"/>
<text text-anchor="middle" x="164.79" y="-439.95" font-family="Times,serif" font-size="14.00">541 IVAR</text>
</g>
<!-- node_541&#45;&#45;node_540 -->
<g id="edge4" class="edge">
<title>node_541&#45;&#45;node_540</title>
<path fill="none" stroke="black" d="M164.79,-426.91C164.79,-411.84 164.79,-389.99 164.79,-374.85"/>
<text text-anchor="middle" x="174.17" y="-395.7" font-family="Times,serif" font-size="14.00">@c</text>
</g>
<!-- node_542 -->
<g id="node6" class="node">
<title>node_542</title>
<ellipse fill="none" stroke="green" cx="48.79" cy="-179.5" rx="48.79" ry="18"/>
<text text-anchor="middle" x="48.79" y="-174.45" font-family="Times,serif" font-size="14.00">542 IVAR</text>
</g>
<!-- node_542&#45;&#45;node_4 -->
<g id="edge5" class="edge">
<title>node_542&#45;&#45;node_4</title>
<path fill="none" stroke="black" d="M59.98,-161.82C70.18,-146.6 85.19,-124.22 95.45,-108.92"/>
<text text-anchor="middle" x="92.36" y="-130.2" font-family="Times,serif" font-size="14.00">@a</text>
</g>
<!-- node_543 -->
<g id="node7" class="node">
<title>node_543</title>
<ellipse fill="none" stroke="green" cx="48.79" cy="-268" rx="48.79" ry="18"/>
<text text-anchor="middle" x="48.79" y="-262.95" font-family="Times,serif" font-size="14.00">543 IVAR</text>
</g>
<!-- node_543&#45;&#45;node_542 -->
<g id="edge6" class="edge">
<title>node_543&#45;&#45;node_542</title>
<path fill="none" stroke="black" d="M48.79,-249.91C48.79,-234.84 48.79,-212.99 48.79,-197.85"/>
<text text-anchor="middle" x="58.54" y="-218.7" font-family="Times,serif" font-size="14.00">@b</text>
</g>
<!-- node_544 -->
<g id="node8" class="node">
<title>node_544</title>
<ellipse fill="none" stroke="green" cx="48.79" cy="-356.5" rx="48.79" ry="18"/>
<text text-anchor="middle" x="48.79" y="-351.45" font-family="Times,serif" font-size="14.00">544 IVAR</text>
</g>
<!-- node_544&#45;&#45;node_543 -->
<g id="edge7" class="edge">
<title>node_544&#45;&#45;node_543</title>
<path fill="none" stroke="black" d="M48.79,-338.41C48.79,-323.34 48.79,-301.49 48.79,-286.35"/>
<text text-anchor="middle" x="58.17" y="-307.2" font-family="Times,serif" font-size="14.00">@c</text>
</g>
</g>
</svg>
