<?xml version="1.0" encoding="UTF-8" standalone="no"?>
<!DOCTYPE svg PUBLIC "-//W3C//DTD SVG 1.1//EN"
 "http://www.w3.org/Graphics/SVG/1.1/DTD/svg11.dtd">
<!-- Generated by graphviz version 12.2.1 (20241206.2353)
 -->
<!-- Title: shape tree Pages: 1 -->
<svg width="131pt" height="471pt"
 viewBox="0.00 0.00 131.18 471.00" xmlns="http://www.w3.org/2000/svg" xmlns:xlink="http://www.w3.org/1999/xlink">
<g id="graph0" class="graph" transform="scale(1 1) rotate(0) translate(4 467)">
<title>shape tree</title>
<polygon fill="white" stroke="none" points="-4,4 -4,-467 127.18,-467 127.18,4 -4,4"/>
<!-- node_538 -->
<g id="node1" class="node">
<title>node_538</title>
<ellipse fill="none" stroke="green" cx="61.59" cy="-179.5" rx="48.79" ry="18"/>
<text text-anchor="middle" x="61.59" y="-174.45" font-family="Times,serif" font-size="14.00">538 IVAR</text>
</g>
<!-- node_4 -->
<g id="node2" class="node">
<title>node_4</title>
<ellipse fill="none" stroke="black" cx="61.59" cy="-91" rx="61.59" ry="18"/>
<text text-anchor="middle" x="61.59" y="-85.95" font-family="Times,serif" font-size="14.00">4 T_OBJECT</text>
</g>
<!-- node_538&#45;&#45;node_4 -->
<g id="edge1" class="edge">
<title>node_538&#45;&#45;node_4</title>
<path fill="none" stroke="black" d="M61.59,-161.41C61.59,-146.34 61.59,-124.49 61.59,-109.35"/>
<text text-anchor="middle" x="70.96" y="-130.2" font-family="Times,serif" font-size="14.00">@a</text>
</g>
<!-- node_4294967295 -->
<g id="node6" class="node">
<title>node_4294967295</title>
<ellipse fill="none" stroke="black" cx="61.59" cy="-18" rx="53.91" ry="18"/>
<text text-anchor="middle" x="61.59" y="-12.95" font-family="Times,serif" font-size="14.00">Root Shape</text>
</g>
<!-- node_4&#45;&#45;node_4294967295 -->
<g id="edge5" class="edge">
<title>node_4&#45;&#45;node_4294967295</title>
<path fill="none" stroke="black" d="M61.59,-72.81C61.59,-61.65 61.59,-47.16 61.59,-36.03"/>
</g>
<!-- node_539 -->
<g id="node3" class="node">
<title>node_539</title>
<ellipse fill="none" stroke="green" cx="61.59" cy="-268" rx="48.79" ry="18"/>
<text text-anchor="middle" x="61.59" y="-262.95" font-family="Times,serif" font-size="14.00">539 IVAR</text>
</g>
<!-- node_539&#45;&#45;node_538 -->
<g id="edge2" class="edge">
<title>node_539&#45;&#45;node_538</title>
<path fill="none" stroke="black" d="M61.59,-249.91C61.59,-234.84 61.59,-212.99 61.59,-197.85"/>
<text text-anchor="middle" x="71.34" y="-218.7" font-family="Times,serif" font-size="14.00">@b</text>
</g>
<!-- node_540 -->
<g id="node4" class="node">
<title>node_540</title>
<ellipse fill="none" stroke="green" cx="61.59" cy="-356.5" rx="48.79" ry="18"/>
<text text-anchor="middle" x="61.59" y="-351.45" font-family="Times,serif" font-size="14.00">540 IVAR</text>
</g>
<!-- node_540&#45;&#45;node_539 -->
<g id="edge3" class="edge">
<title>node_540&#45;&#45;node_539</title>
<path fill="none" stroke="black" d="M61.59,-338.41C61.59,-323.34 61.59,-301.49 61.59,-286.35"/>
<text text-anchor="middle" x="70.96" y="-307.2" font-family="Times,serif" font-size="14.00">@c</text>
</g>
<!-- node_541 -->
<g id="node5" class="node">
<title>node_541</title>
<ellipse fill="none" stroke="green" cx="61.59" cy="-445" rx="48.79" ry="18"/>
<text text-anchor="middle" x="61.59" y="-439.95" font-family="Times,serif" font-size="14.00">541 IVAR</text>
</g>
<!-- node_541&#45;&#45;node_540 -->
<g id="edge4" class="edge">
<title>node_541&#45;&#45;node_540</title>
<path fill="none" stroke="black" d="M61.59,-426.91C61.59,-411.84 61.59,-389.99 61.59,-374.85"/>
<text text-anchor="middle" x="81.46" y="-395.7" font-family="Times,serif" font-size="14.00">@extra</text>
</g>
</g>
</svg>
