<?xml version="1.0" encoding="UTF-8" standalone="no"?>
<!DOCTYPE svg PUBLIC "-//W3C//DTD SVG 1.1//EN"
 "http://www.w3.org/Graphics/SVG/1.1/DTD/svg11.dtd">
<!-- Generated by graphviz version 12.2.1 (20241206.2353)
 -->
<!-- Title: shape tree Pages: 1 -->
<svg width="686pt" height="383pt"
 viewBox="0.00 0.00 685.58 382.50" xmlns="http://www.w3.org/2000/svg" xmlns:xlink="http://www.w3.org/1999/xlink">
<g id="graph0" class="graph" transform="scale(1 1) rotate(0) translate(4 378.5)">
<title>shape tree</title>
<polygon fill="white" stroke="none" points="-4,4 -4,-378.5 681.58,-378.5 681.58,4 -4,4"/>
<!-- node_538 -->
<g id="node1" class="node">
<title>node_538</title>
<ellipse fill="none" stroke="green" cx="512.79" cy="-179.5" rx="48.79" ry="18"/>
<text text-anchor="middle" x="512.79" y="-174.45" font-family="Times,serif" font-size="14.00">538 IVAR</text>
</g>
<!-- node_3 -->
<g id="node2" class="node">
<title>node_3</title>
<ellipse fill="none" stroke="black" cx="337.79" cy="-91" rx="61.59" ry="18"/>
<text text-anchor="middle" x="337.79" y="-85.95" font-family="Times,serif" font-size="14.00">3 T_OBJECT</text>
</g>
<!-- node_538&#45;&#45;node_3 -->
<g id="edge1" class="edge">
<title>node_538&#45;&#45;node_3</title>
<path fill="none" stroke="black" d="M484.29,-164.41C452.42,-148.66 401.02,-123.25 368.35,-107.1"/>
<text text-anchor="middle" x="450.72" y="-130.2" font-family="Times,serif" font-size="14.00">@b</text>
</g>
<!-- node_4294967295 -->
<g id="node17" class="node">
<title>node_4294967295</title>
<ellipse fill="none" stroke="black" cx="337.79" cy="-18" rx="53.91" ry="18"/>
<text text-anchor="middle" x="337.79" y="-12.95" font-family="Times,serif" font-size="14.00">Root Shape</text>
</g>
<!-- node_3&#45;&#45;node_4294967295 -->
<g id="edge16" class="edge">
<title>node_3&#45;&#45;node_4294967295</title>
<path fill="none" stroke="black" d="M337.79,-72.81C337.79,-61.65 337.79,-47.16 337.79,-36.03"/>
</g>
<!-- node_539 -->
<g id="node3" class="node">
<title>node_539</title>
<ellipse fill="none" stroke="green" cx="512.79" cy="-268" rx="48.79" ry="18"/>
<text text-anchor="middle" x="512.79" y="-262.95" font-family="Times,serif" font-size="14.00">539 IVAR</text>
</g>
<!-- node_539&#45;&#45;node_538 -->
<g id="edge2" class="edge">
<title>node_539&#45;&#45;node_538</title>
<path fill="none" stroke="black" d="M512.79,-249.91C512.79,-234.84 512.79,-212.99 512.79,-197.85"/>
<text text-anchor="middle" x="522.17" y="-218.7" font-family="Times,serif" font-size="14.00">@a</text>
</g>
<!-- node_540 -->
<g id="node4" class="node">
<title>node_540</title>
<ellipse fill="none" stroke="green" cx="512.79" cy="-356.5" rx="48.79" ry="18"/>
<text text-anchor="middle" x="512.79" y="-351.45" font-family="Times,serif" font-size="14.00">540 IVAR</text>
</g>
<!-- node_540&#45;&#45;node_539 -->
<g id="edge3" class="edge">
<title>node_540&#45;&#45;node_539</title>
<path fill="none" stroke="black" d="M512.79,-338.41C512.79,-323.34 512.79,-301.49 512.79,-286.35"/>
<text text-anchor="middle" x="522.17" y="-307.2" font-family="Times,serif" font-size="14.00">@c</text>
</g>
<!-- node_541 -->
<g id="node5" class="node">
<title>node_541</title>
<ellipse fill="none" stroke="green" cx="164.79" cy="-179.5" rx="48.79" ry="18"/>
<text text-anchor="middle" x="164.79" y="-174.45" font-family="Times,serif" font-size="14.00">541 IVAR</text>
</g>
<!-- node_541&#45;&#45;node_3 -->
<g id="edge4" class="edge">
<title>node_541&#45;&#45;node_3</title>
<path fill="none" stroke="black" d="M192.97,-164.41C224.47,-148.66 275.29,-123.25 307.59,-107.1"/>
<text text-anchor="middle" x="276.16" y="-130.2" font-family="Times,serif" font-size="14.00">@a</text>
</g>
<!-- node_542 -->
<g id="node6" class="node">
<title>node_542</title>
<ellipse fill="none" stroke="green" cx="48.79" cy="-268" rx="48.79" ry="18"/>
<text text-anchor="middle" x="48.79" y="-262.95" font-family="Times,serif" font-size="14.00">542 IVAR</text>
</g>
<!-- node_542&#45;&#45;node_541 -->
<g id="edge5" class="edge">
<title>node_542&#45;&#45;node_541</title>
<path fill="none" stroke="black" d="M69.8,-251.34C90.82,-235.66 122.97,-211.68 143.94,-196.05"/>
<text text-anchor="middle" x="126.56" y="-218.7" font-family="Times,serif" font-size="14.00">@c</text>
</g>
<!-- node_543 -->
<g id="node7" class="node">
<title>node_543</title>
<ellipse fill="none" stroke="green" cx="48.79" cy="-356.5" rx="48.79" ry="18"/>
<text text-anchor="middle" x="48.79" y="-351.45" font-family="Times,serif" font-size="14.00">543 IVAR</text>
</g>
<!-- node_543&#45;&#45;node_542 -->
<g id="edge6" class="edge">
<title>node_543&#45;&#45;node_542</title>
<path fill="none" stroke="black" d="M48.79,-338.41C48.79,-323.34 48.79,-301.49 48.79,-286.35"/>
<text text-anchor="middle" x="58.54" y="-307.2" font-family="Times,serif" font-size="14.00">@b</text>
</g>
<!-- node_544 -->
<g id="node8" class="node">
<title>node_544</title>
<ellipse fill="none" stroke="green" cx="628.79" cy="-268" rx="48.79" ry="18"/>
<text text-anchor="middle" x="628.79" y="-262.95" font-family="Times,serif" font-size="14.00">544 IVAR</text>
</g>
<!-- node_544&#45;&#45;node_538 -->
<g id="edge7" class="edge">
<title>node_544&#45;&#45;node_538</title>
<path fill="none" stroke="black" d="M607.79,-251.34C586.76,-235.66 554.61,-211.68 533.64,-196.05"/>
<text text-anchor="middle" x="590.56" y="-218.7" font-family="Times,serif" font-size="14.00">@c</text>
</g>
<!-- node_545 -->
<g id="node9" class="node">
<title>node_545</title>
<ellipse fill="none" stroke="green" cx="628.79" cy="-356.5" rx="48.79" ry="18"/>
<text text-anchor="middle" x="628.79" y="-351.45" font-family="Times,serif" font-size="14.00">545 IVAR</text>
</g>
<!-- node_545&#45;&#45;node_544 -->
<g id="edge8" class="edge">
<title>node_545&#45;&#45;node_544</title>
<path fill="none" stroke="black" d="M628.79,-338.41C628.79,-323.34 628.79,-301.49 628.79,-286.35"/>
<text text-anchor="middle" x="638.17" y="-307.2" font-family="Times,serif" font-size="14.00">@a</text>
</g>
<!-- node_546 -->
<g id="node10" class="node">
<title>node_546</title>
<ellipse fill="none" stroke="green" cx="337.79" cy="-179.5" rx="48.79" ry="18"/>
<text text-anchor="middle" x="337.79" y="-174.45" font-family="Times,serif" font-size="14.00">546 IVAR</text>
</g>
<!-- node_546&#45;&#45;node_3 -->
<g id="edge9" class="edge">
<title>node_546&#45;&#45;node_3</title>
<path fill="none" stroke="black" d="M337.79,-161.41C337.79,-146.34 337.79,-124.49 337.79,-109.35"/>
<text text-anchor="middle" x="347.17" y="-130.2" font-family="Times,serif" font-size="14.00">@c</text>
</g>
<!-- node_547 -->
<g id="node11" class="node">
<title>node_547</title>
<ellipse fill="none" stroke="green" cx="280.79" cy="-268" rx="48.79" ry="18"/>
<text text-anchor="middle" x="280.79" y="-262.95" font-family="Times,serif" font-size="14.00">547 IVAR</text>
</g>
<!-- node_547&#45;&#45;node_546 -->
<g id="edge10" class="edge">
<title>node_547&#45;&#45;node_546</title>
<path fill="none" stroke="black" d="M291.78,-250.32C301.81,-235.1 316.56,-212.72 326.64,-197.42"/>
<text text-anchor="middle" x="323.77" y="-218.7" font-family="Times,serif" font-size="14.00">@a</text>
</g>
<!-- node_548 -->
<g id="node12" class="node">
<title>node_548</title>
<ellipse fill="none" stroke="green" cx="280.79" cy="-356.5" rx="48.79" ry="18"/>
<text text-anchor="middle" x="280.79" y="-351.45" font-family="Times,serif" font-size="14.00">548 IVAR</text>
</g>
<!-- node_548&#45;&#45;node_547 -->
<g id="edge11" class="edge">
<title>node_548&#45;&#45;node_547</title>
<path fill="none" stroke="black" d="M280.79,-338.41C280.79,-323.34 280.79,-301.49 280.79,-286.35"/>
<text text-anchor="middle" x="290.54" y="-307.2" font-family="Times,serif" font-size="14.00">@b</text>
</g>
<!-- node_549 -->
<g id="node13" class="node">
<title>node_549</title>
<ellipse fill="none" stroke="green" cx="164.79" cy="-268" rx="48.79" ry="18"/>
<text text-anchor="middle" x="164.79" y="-262.95" font-family="Times,serif" font-size="14.00">549 IVAR</text>
</g>
<!-- node_549&#45;&#45;node_541 -->
<g id="edge12" class="edge">
<title>node_549&#45;&#45;node_541</title>
<path fill="none" stroke="black" d="M164.79,-249.91C164.79,-234.84 164.79,-212.99 164.79,-197.85"/>
<text text-anchor="middle" x="174.54" y="-218.7" font-family="Times,serif" font-size="14.00">@b</text>
</g>
<!-- node_550 -->
<g id="node14" class="node">
<title>node_550</title>
<ellipse fill="none" stroke="green" cx="164.79" cy="-356.5" rx="48.79" ry="18"/>
<text text-anchor="middle" x="164.79" y="-351.45" font-family="Times,serif" font-size="14.00">550 IVAR</text>
</g>
<!-- node_550&#45;&#45;node_549 -->
<g id="edge13" class="edge">
<title>node_550&#45;&#45;node_549</title>
<path fill="none" stroke="black" d="M164.79,-338.41C164.79,-323.34 164.79,-301.49 164.79,-286.35"/>
<text text-anchor="middle" x="174.17" y="-307.2" font-family="Times,serif" font-size="14.00">@c</text>
</g>
<!-- node_551 -->
<g id="node15" class="node">
<title>node_551</title>
<ellipse fill="none" stroke="green" cx="396.79" cy="-268" rx="48.79" ry="18"/>
<text text-anchor="middle" x="396.79" y="-262.95" font-family="Times,serif" font-size="14.00">551 IVAR</text>
</g>
<!-- node_551&#45;&#45;node_546 -->
<g id="edge14" class="edge">
<title>node_551&#45;&#45;node_546</title>
<path fill="none" stroke="black" d="M385.42,-250.32C375.04,-235.1 359.77,-212.72 349.33,-197.42"/>
<text text-anchor="middle" x="382.33" y="-218.7" font-family="Times,serif" font-size="14.00">@b</text>
</g>
<!-- node_552 -->
<g id="node16" class="node">
<title>node_552</title>
<ellipse fill="none" stroke="green" cx="396.79" cy="-356.5" rx="48.79" ry="18"/>
<text text-anchor="middle" x="396.79" y="-351.45" font-family="Times,serif" font-size="14.00">552 IVAR</text>
</g>
<!-- node_552&#45;&#45;node_551 -->
<g id="edge15" class="edge">
<title>node_552&#45;&#45;node_551</title>
<path fill="none" stroke="black" d="M396.79,-338.41C396.79,-323.34 396.79,-301.49 396.79,-286.35"/>
<text text-anchor="middle" x="406.17" y="-307.2" font-family="Times,serif" font-size="14.00">@a</text>
</g>
</g>
</svg>
